<?xml version="1.0" encoding="UTF-8"?>
<svg width="124px" height="124px" viewBox="0 0 124 124" version="1.1" xmlns="http://www.w3.org/2000/svg" xmlns:xlink="http://www.w3.org/1999/xlink">
    <title>Group 61</title>
    <g id="Page-1-Copy-2" stroke="none" stroke-width="1" fill="none" fill-rule="evenodd">
        <g id="1-home" transform="translate(-153.000000, -1054.000000)" stroke="#9B9B9B" stroke-width="2">
            <g id="Group-61" transform="translate(154.000000, 1055.000000)">
                <line x1="11.8064516" y1="60.9990161" x2="25.5806452" y2="60.9990161" id="Stroke-1"></line>
                <g id="Group-60">
                    <path d="M11.8064516,61 C11.8064516,64.2605484 9.16180645,66.9032258 5.90322581,66.9032258 C2.64464516,66.9032258 0,64.2605484 0,61 C0,57.7394516 2.64464516,55.0967742 5.90322581,55.0967742 C9.16180645,55.0967742 11.8064516,57.7394516 11.8064516,61 Z" id="Stroke-2"></path>
                    <line x1="17.7096774" y1="35.4193548" x2="29.516129" y2="43.2903226" id="Stroke-4"></line>
                    <path d="M19.6774194,33.4516129 C19.6774194,36.7121613 17.0327742,39.3548387 13.7741935,39.3548387 C10.5156129,39.3548387 7.87096774,36.7121613 7.87096774,33.4516129 C7.87096774,30.1910645 10.5156129,27.5483871 13.7741935,27.5483871 C17.0327742,27.5483871 19.6774194,30.1910645 19.6774194,33.4516129 Z" id="Stroke-6"></path>
                    <path d="M39.3548387,13.7741935 C39.3548387,17.0347419 36.7101935,19.6774194 33.4516129,19.6774194 C30.1930323,19.6774194 27.5483871,17.0347419 27.5483871,13.7741935 C27.5483871,10.5136452 30.1930323,7.87096774 33.4516129,7.87096774 C36.7101935,7.87096774 39.3548387,10.5136452 39.3548387,13.7741935 Z" id="Stroke-8"></path>
                    <line x1="35.4193548" y1="17.7096774" x2="43.2903226" y2="29.516129" id="Stroke-10"></line>
                    <line x1="110.193548" y1="60.9990161" x2="96.4193548" y2="60.9990161" id="Stroke-12"></line>
                    <path d="M110.193548,61 C110.193548,64.2605484 112.838194,66.9032258 116.096774,66.9032258 C119.355355,66.9032258 122,64.2605484 122,61 C122,57.7394516 119.355355,55.0967742 116.096774,55.0967742 C112.838194,55.0967742 110.193548,57.7394516 110.193548,61 Z" id="Stroke-14"></path>
                    <line x1="104.290323" y1="35.4193548" x2="92.483871" y2="43.2903226" id="Stroke-16"></line>
                    <path d="M102.322581,33.4516129 C102.322581,36.7121613 104.967226,39.3548387 108.225806,39.3548387 C111.484387,39.3548387 114.129032,36.7121613 114.129032,33.4516129 C114.129032,30.1910645 111.484387,27.5483871 108.225806,27.5483871 C104.967226,27.5483871 102.322581,30.1910645 102.322581,33.4516129 Z" id="Stroke-18"></path>
                    <path d="M82.6451613,13.7741935 C82.6451613,17.0347419 85.2898065,19.6774194 88.5483871,19.6774194 C91.8069677,19.6774194 94.4516129,17.0347419 94.4516129,13.7741935 C94.4516129,10.5136452 91.8069677,7.87096774 88.5483871,7.87096774 C85.2898065,7.87096774 82.6451613,10.5136452 82.6451613,13.7741935 Z" id="Stroke-20"></path>
                    <line x1="61" y1="11.8054677" x2="61" y2="25.5796613" id="Stroke-22"></line>
                    <line x1="86.5806452" y1="17.7096774" x2="78.7096774" y2="29.516129" id="Stroke-24"></line>
                    <path d="M66.9032258,5.90322581 C66.9032258,9.16377419 64.2585806,11.8064516 61,11.8064516 C57.7414194,11.8064516 55.0967742,9.16377419 55.0967742,5.90322581 C55.0967742,2.64267742 57.7414194,0 61,0 C64.2585806,0 66.9032258,2.64267742 66.9032258,5.90322581 Z" id="Stroke-26"></path>
                    <line x1="104.290323" y1="86.5806452" x2="92.483871" y2="78.7096774" id="Stroke-28"></line>
                    <path d="M102.322581,88.5483871 C102.322581,85.2878387 104.967226,82.6451613 108.225806,82.6451613 C111.484387,82.6451613 114.129032,85.2878387 114.129032,88.5483871 C114.129032,91.8089355 111.484387,94.4516129 108.225806,94.4516129 C104.967226,94.4516129 102.322581,91.8089355 102.322581,88.5483871 Z" id="Stroke-30"></path>
                    <path d="M82.6451613,108.225806 C82.6451613,104.965258 85.2898065,102.322581 88.5483871,102.322581 C91.8069677,102.322581 94.4516129,104.965258 94.4516129,108.225806 C94.4516129,111.486355 91.8069677,114.129032 88.5483871,114.129032 C85.2898065,114.129032 82.6451613,111.486355 82.6451613,108.225806 Z" id="Stroke-32"></path>
                    <line x1="86.5806452" y1="104.290323" x2="78.7096774" y2="92.483871" id="Stroke-34"></line>
                    <line x1="17.7096774" y1="86.5806452" x2="29.516129" y2="78.7096774" id="Stroke-36"></line>
                    <path d="M19.6774194,88.5483871 C19.6774194,85.2878387 17.0327742,82.6451613 13.7741935,82.6451613 C10.5156129,82.6451613 7.87096774,85.2878387 7.87096774,88.5483871 C7.87096774,91.8089355 10.5156129,94.4516129 13.7741935,94.4516129 C17.0327742,94.4516129 19.6774194,91.8089355 19.6774194,88.5483871 Z" id="Stroke-38"></path>
                    <path d="M39.3548387,108.225806 C39.3548387,104.965258 36.7101935,102.322581 33.4516129,102.322581 C30.1930323,102.322581 27.5483871,104.965258 27.5483871,108.225806 C27.5483871,111.486355 30.1930323,114.129032 33.4516129,114.129032 C36.7101935,114.129032 39.3548387,111.486355 39.3548387,108.225806 Z" id="Stroke-40"></path>
                    <line x1="61" y1="110.192565" x2="61" y2="96.418371" id="Stroke-42"></line>
                    <line x1="35.4193548" y1="104.290323" x2="43.2903226" y2="92.483871" id="Stroke-44"></line>
                    <path d="M55.0967742,116.096774 C55.0967742,112.836226 57.7414194,110.193548 61,110.193548 C64.2585806,110.193548 66.9032258,112.836226 66.9032258,116.096774 C66.9032258,119.357323 64.2585806,122 61,122 C57.7414194,122 55.0967742,119.357323 55.0967742,116.096774 Z" id="Stroke-46"></path>
                    <path d="M90.516129,61 C90.516129,77.3007742 77.2988065,90.516129 61,90.516129 C44.6992258,90.516129 31.483871,77.3007742 31.483871,61 C31.483871,44.6992258 44.6992258,31.483871 61,31.483871 C77.2988065,31.483871 90.516129,44.6992258 90.516129,61 Z" id="Stroke-48"></path>
                    <line x1="90.516129" y1="60.9990161" x2="31.483871" y2="60.9990161" id="Stroke-50"></line>
                    <line x1="37.3870968" y1="43.2893387" x2="84.6129032" y2="43.2893387" id="Stroke-52"></line>
                    <line x1="37.3870968" y1="78.7086935" x2="84.6129032" y2="78.7086935" id="Stroke-54"></line>
                    <path d="M76.7419355,61 C76.7419355,77.3007742 69.6934839,90.516129 61,90.516129 C52.3065161,90.516129 45.2580645,77.3007742 45.2580645,61 C45.2580645,44.6992258 52.3065161,31.483871 61,31.483871 C69.6934839,31.483871 76.7419355,44.6992258 76.7419355,61 Z" id="Stroke-56"></path>
                    <line x1="61" y1="31.4828871" x2="61" y2="90.5151452" id="Stroke-58"></line>
                </g>
            </g>
        </g>
    </g>
</svg>