<?xml version="1.0" encoding="UTF-8"?>
<svg width="35px" height="40px" viewBox="0 0 35 40" version="1.1" xmlns="http://www.w3.org/2000/svg" xmlns:xlink="http://www.w3.org/1999/xlink">
    <title>Group 11 Copy</title>
    <g id="Page-1-Copy-2" stroke="none" stroke-width="1" fill="none" fill-rule="evenodd">
        <g id="7-dashboard-copy" transform="translate(-843.000000, -790.000000)">
            <g id="Group-11-Copy" transform="translate(843.000000, 790.000000)">
                <path d="M2.5,0 L23.7412,0 L34.99995,11.21505 L34.99995,37.5 C34.99995,38.8812 33.88,40 32.49995,40 L2.5,40 C1.11995,40 0,38.88125 0,37.5 L0,2.5 C0,1.11875 1.1201,0 2.5,0" id="Fill-1" fill="#1B84C7"></path>
                <path d="M34.96385,11.24995 L26.2501,11.24995 C24.87005,11.24995 23.7501,10.13 23.7501,8.74995 L23.7501,0.02495 L34.96385,11.24995 Z" id="Fill-3" fill="#186DA4"></path>
                <path d="M8.31315,18.5835 L8.31315,23.9919 L9.47325,23.9919 C9.98885,23.9919 10.40415,23.79945 10.71925,23.4145 C11.0343,23.0297 11.1919,22.5364 11.1919,21.93485 L11.1919,20.62975 C11.1919,20.03185 11.0343,19.54135 10.71925,19.15815 C10.40415,18.77505 9.98885,18.5835 9.47325,18.5835 L8.31315,18.5835 L8.31315,18.5835 Z M6.7449,25.1949 L6.7449,17.3751 L9.47325,17.3751 C10.42925,17.3751 11.2169,17.6804 11.83635,18.2908 C12.45575,18.9013 12.7655,19.6845 12.7655,20.6405 L12.7655,21.93485 C12.7655,22.89445 12.45575,23.67765 11.83635,24.28455 C11.21685,24.89145 10.4292,25.1949 9.47325,25.1949 L6.7449,25.1949 Z" id="Fill-5" fill="#FFFFFF"></path>
                <path d="M18.7861,20.5707 C18.7861,19.96205 18.63385,19.46255 18.32955,19.0723 C18.02525,18.68205 17.60455,18.4869 17.06745,18.4869 C16.5375,18.4869 16.12485,18.6821 15.8295,19.0723 C15.5341,19.4626 15.3864,19.96205 15.3864,20.5707 L15.3864,21.98855 C15.3864,22.60805 15.53495,23.1129 15.8322,23.5031 C16.12935,23.89345 16.5447,24.08855 17.0782,24.08855 C17.6153,24.08855 18.03425,23.89345 18.3349,23.5031 C18.6357,23.1129 18.78605,22.60805 18.78605,21.98855 L18.78605,20.5707 L18.7861,20.5707 Z M20.349,21.98855 C20.349,22.9518 20.04635,23.74575 19.4414,24.3705 C18.8362,24.99535 18.04855,25.3077 17.07825,25.3077 C16.1115,25.3077 15.32735,24.9944 14.72585,24.3678 C14.12435,23.7413 13.8236,22.94815 13.8236,21.98855 L13.8236,20.5814 C13.8236,19.6254 14.12345,18.83325 14.7232,18.20485 C15.3229,17.5765 16.10435,17.2623 17.06755,17.2623 C18.03785,17.2623 18.8273,17.5765 19.4361,18.20485 C20.0447,18.8332 20.3491,19.6254 20.3491,20.5814 L20.3491,21.98855 L20.349,21.98855 Z" id="Fill-7" fill="#FFFFFF"></path>
                <path d="M27.45445,22.60625 L27.4652,22.63845 C27.47945,23.4728 27.22525,24.12615 26.70255,24.5988 C26.17975,25.0714 25.4583,25.30775 24.53815,25.30775 C23.6,25.30775 22.84275,25.00615 22.2663,24.40275 C21.6898,23.7995 21.4016,23.0198 21.4016,22.0638 L21.4016,20.51165 C21.4016,19.5593 21.68265,18.7796 22.2448,18.1727 C22.8069,17.5658 23.5445,17.26235 24.45755,17.26235 C25.40995,17.26235 26.1547,17.49515 26.6918,17.96055 C27.22885,18.42605 27.4902,19.08125 27.47595,19.9262 L27.4652,19.95845 L25.9399,19.95845 C25.9399,19.4572 25.81905,19.08395 25.5774,18.83865 C25.3357,18.59345 24.9624,18.47075 24.4576,18.47075 C23.9885,18.47075 23.62245,18.65965 23.3593,19.0374 C23.0961,19.4152 22.9645,19.903 22.9645,20.5009 L22.9645,22.0638 C22.9645,22.6653 23.1032,23.15595 23.38075,23.5354 C23.65815,23.915 24.04405,24.1047 24.5381,24.1047 C25.0071,24.1047 25.35715,23.98215 25.5881,23.73685 C25.819,23.49165 25.9345,23.1148 25.9345,22.60635 L27.45445,22.60635 L27.45445,22.60625 Z" id="Fill-9" fill="#FFFFFF"></path>
            </g>
        </g>
    </g>
</svg>