<?xml version="1.0" encoding="UTF-8"?>
<svg width="125px" height="125px" viewBox="0 0 125 125" version="1.1" xmlns="http://www.w3.org/2000/svg" xmlns:xlink="http://www.w3.org/1999/xlink">
    <title>Group 37 Copy</title>
    <g id="Page-1-Copy-2" stroke="none" stroke-width="1" fill="none" fill-rule="evenodd" stroke-linejoin="round">
        <g id="2-individuals" transform="translate(-1018.000000, -1194.000000)" stroke="#2E3092" stroke-width="2">
            <g id="Group-37-Copy" transform="translate(1018.000000, 1194.000000)">
                <path d="M52.3125,52.3134687 C52.3125,59.0947187 56.1158125,65.8759687 62,65.8759687 C67.8841875,65.8759687 71.6875,59.0947187 71.6875,52.3134687 C71.6875,45.5322187 69.75,42.6259687 62,42.6259687 C54.25,42.6259687 52.3125,45.5322187 52.3125,52.3134687 Z" id="Stroke-1"></path>
                <path d="M56.1875,63.9384688 L42.625,71.6865313 L42.625,75.5615313 C42.625,78.7719688 44.5625,81.3740313 46.5,81.3740313 L77.5,81.3740313 C79.4375,81.3740313 81.375,78.7719688 81.375,75.5615313 L81.375,71.6865313 L67.8125,63.9384688" id="Stroke-3"></path>
                <line x1="62" y1="124" x2="62" y2="104.625" id="Stroke-5"></line>
                <polyline id="Stroke-7" points="69.75 112.375 62 104.625 54.25 112.375"></polyline>
                <line x1="62" y1="0" x2="62" y2="19.375" id="Stroke-9"></line>
                <polyline id="Stroke-11" points="54.25 11.6259687 62 19.3759687 69.75 11.6259687"></polyline>
                <line x1="124" y1="62" x2="104.625" y2="62" id="Stroke-13"></line>
                <polyline id="Stroke-15" points="112.375 54.2509687 104.625 62.0009687 112.375 69.7490313"></polyline>
                <line x1="0" y1="62" x2="19.375" y2="62" id="Stroke-17"></line>
                <polyline id="Stroke-19" points="11.625 69.75 19.375 62.0019375 11.625 54.2519375"></polyline>
                <line x1="17.4375" y1="106.5625" x2="31" y2="93" id="Stroke-21"></line>
                <polyline id="Stroke-23" points="31 102.6875 31 93 21.3125 93"></polyline>
                <line x1="106.5625" y1="17.4384687" x2="93" y2="31.0009687" id="Stroke-25"></line>
                <polyline id="Stroke-27" points="93 21.3125 93 31 102.6875 31"></polyline>
                <line x1="106.5625" y1="106.5625" x2="93" y2="93" id="Stroke-29"></line>
                <polyline id="Stroke-31" points="102.6875 93 93 93 93 102.6875"></polyline>
                <line x1="17.4375" y1="17.4384687" x2="31" y2="31.0009687" id="Stroke-33"></line>
                <polyline id="Stroke-35" points="21.3125 31 31 31 31 21.3125"></polyline>
            </g>
        </g>
    </g>
</svg>