<?xml version="1.0" encoding="UTF-8"?>
<svg width="122px" height="122px" viewBox="0 0 122 122" version="1.1" xmlns="http://www.w3.org/2000/svg" xmlns:xlink="http://www.w3.org/1999/xlink">
    <title>Group 32</title>
    <g id="Page-1-Copy-2" stroke="none" stroke-width="1" fill="none" fill-rule="evenodd">
        <g id="4-registration" transform="translate(-1019.000000, -1321.000000)" stroke="#2E3092" stroke-width="2">
            <g id="Group-32" transform="translate(1020.000000, 1322.000000)">
                <line x1="41.2695484" y1="35.6504516" x2="78.7308387" y2="35.6504516" id="Stroke-1"></line>
                <polyline id="Stroke-2" stroke-linecap="round" points="103.080194 61.8729677 97.4614839 67.4916774 97.4614839 71.2387742 89.9692258 78.7310323"></polyline>
                <g id="Group-31">
                    <path d="M58.1270323,78.7304516 L78.7302581,99.3336774 C78.7302581,99.3336774 80.6038065,101.207226 82.4773548,101.207226 C85.5799355,101.207226 88.0960645,98.6910968 88.0960645,95.5885161 C88.0960645,93.7149677 86.2225161,91.8414194 86.2225161,91.8414194 L65.6192903,71.2381935" id="Stroke-3" stroke-linecap="round"></path>
                    <path d="M76.8574839,97.4609032 C76.8574839,97.4609032 78.7310323,99.3344516 78.7310323,101.206065 C78.7310323,104.308645 76.2129677,106.82671 73.1123226,106.82671 C71.2387742,106.82671 69.3652258,104.953161 69.3652258,104.953161 L50.6355484,86.2234839" id="Stroke-5" stroke-linecap="round"></path>
                    <path d="M65.6190968,101.207032 C65.6190968,101.207032 67.4926452,103.080581 67.4926452,104.952194 C67.4926452,108.054774 64.9745806,110.572839 61.8739355,110.572839 C60.0003871,110.572839 58.1268387,108.69929 58.1268387,108.69929 L24.4126452,74.9850968 L24.4126452,69.3644516 L16.9203871,61.8721935" id="Stroke-7" stroke-linecap="round"></path>
                    <path d="M33.7772903,86.2227097 C33.7772903,86.2227097 31.9037419,88.0962581 30.032129,88.0962581 C26.9295484,88.0962581 24.4114839,85.5781935 24.4114839,82.4775484 C24.4114839,80.604 26.2850323,78.7304516 26.2850323,78.7304516" id="Stroke-9" stroke-linecap="round"></path>
                    <path d="M41.2695484,93.7149677 C41.2695484,93.7149677 39.396,95.5885161 37.5243871,95.5885161 C34.4218065,95.5885161 31.9037419,93.0704516 31.9037419,89.9698065 C31.9037419,88.0962581 33.7772903,86.2227097 33.7772903,86.2227097" id="Stroke-11" stroke-linecap="round"></path>
                    <path d="M48.7616129,101.207032 C48.7616129,101.207032 46.8880645,103.080581 45.0164516,103.080581 C41.913871,103.080581 39.3958065,100.562516 39.3958065,97.461871 C39.3958065,95.5883226 41.2693548,93.7147742 41.2693548,93.7147742" id="Stroke-13" stroke-linecap="round"></path>
                    <path d="M56.253871,108.69929 C56.253871,108.69929 54.3803226,110.572839 52.5087097,110.572839 C49.406129,110.572839 46.8880645,108.054774 46.8880645,104.954129 C46.8880645,103.080581 48.7616129,101.207032 48.7616129,101.207032" id="Stroke-15" stroke-linecap="round"></path>
                    <path d="M54.3809032,35.6504516 L43.1434839,46.887871 C43.1434839,46.887871 41.2699355,48.7614194 41.2699355,50.6349677 C41.2699355,53.7375484 43.7860645,56.2536774 46.8886452,56.2536774 C48.7621935,56.2536774 50.6357419,54.380129 50.6357419,54.380129 L59.9996129,45.0162581 L65.6183226,45.0162581 L65.6183226,56.2536774 L89.9686452,80.604 C89.9686452,80.604 91.8421935,82.4775484 91.8421935,84.3491613 C91.8421935,87.4517419 89.324129,89.9698065 86.2234839,89.9698065 C84.3499355,89.9698065 82.4763871,88.0962581 82.4763871,88.0962581" id="Stroke-17" stroke-linecap="round"></path>
                    <path d="M80.6036129,54.3809032 C80.6036129,57.4834839 78.0874839,59.9996129 74.9849032,59.9996129 L69.3661935,59.9996129" id="Stroke-19"></path>
                    <polyline id="Stroke-21" stroke-linecap="round" stroke-linejoin="round" points="118.064516 52.5077419 108.69871 61.8735484 104.953548 61.8735484 74.9845161 31.9045161 74.9845161 28.1574194 91.9354839 10.6451613"></polyline>
                    <polyline id="Stroke-23" stroke-linecap="round" stroke-linejoin="round" points="1.93548387 52.5077419 11.3012903 61.8735484 15.0464516 61.8735484 45.0154839 31.9045161 45.0154839 28.1574194 28.0645161 10.6451613"></polyline>
                    <line x1="106.826323" y1="48.7616129" x2="110.571484" y2="45.0164516" id="Stroke-25" stroke-linecap="round"></line>
                    <line x1="9.42774194" y1="45.0156774" x2="13.1729032" y2="48.7608387" id="Stroke-27" stroke-linecap="round"></line>
                    <path d="M120,60 C120,93.1374194 93.1374194,120 60,120 C26.8625806,120 0,93.1374194 0,60 C0,26.8625806 26.8625806,0 60,0 C93.1374194,0 120,26.8625806 120,60 Z" id="Stroke-29"></path>
                </g>
            </g>
        </g>
    </g>
</svg>