<?xml version="1.0" encoding="UTF-8"?>
<svg width="191px" height="25px" viewBox="0 0 191 25" version="1.1" xmlns="http://www.w3.org/2000/svg" xmlns:xlink="http://www.w3.org/1999/xlink">
    <title>Group 22</title>
    <defs>
        <polygon id="path-1" points="1.0505 0.0110526316 18.0797966 0.0110526316 18.0797966 18.4210526 1.0505 18.4210526"></polygon>
        <polygon id="path-3" points="0 24.2034211 190.170138 24.2034211 190.170138 -0.000526315789 0 -0.000526315789"></polygon>
    </defs>
    <g id="Page-1-Copy-2" stroke="none" stroke-width="1" fill="none" fill-rule="evenodd">
        <g id="1-home" transform="translate(-70.000000, -30.000000)">
            <g id="Group-22" transform="translate(70.000000, 30.000000)">
                <path d="M8.36474621,11.1121053 C10.7515876,11.1121053 11.9133945,10.0568421 11.9133945,7.87526316 L11.9133945,6.40947368 C11.9133945,4.22789474 10.7515876,3.17 8.36474621,3.17 L3.7899669,3.17 L3.7899669,11.1121053 L8.36474621,11.1121053 Z M3.7899669,23.795 L0.000263448276,23.795 L0.000263448276,0.000263157895 L8.91008414,0.000263157895 C13.4137324,0.000263157895 15.9072703,2.72657895 15.9072703,7.15947368 C15.9072703,10.7739474 14.0644497,13.2936842 10.7515876,13.8410526 L16.2484359,23.795 L12.0161393,23.795 L6.96451862,14.1818421 L3.7899669,14.1818421 L3.7899669,23.795 Z" id="Fill-1" fill="#2E3092"></path>
                <path d="M21.4590476,13.2939474 L21.4590476,13.5321053 L30.2990545,13.5321053 L30.2990545,13.1939474 C30.2990545,10.4321053 28.5932269,8.62421053 25.9969441,8.62421053 C23.3347993,8.62421053 21.4590476,10.5676316 21.4590476,13.2939474 M17.7049097,15.0347368 C17.7049097,9.37421053 20.980889,5.79394737 25.9969441,5.79394737 C30.9471372,5.79394737 34.0874407,9.34131579 34.0874407,14.5202632 L34.0874407,15.9202632 L21.4590476,15.9202632 L21.4590476,16.5005263 C21.4590476,19.2623684 23.3018683,21.2057895 26.3394269,21.2057895 C28.5932269,21.2057895 30.2292407,20.1478947 31.218489,18.5097368 L33.5394683,20.5557895 C32.3473648,22.6018421 29.8880752,24.2031579 26.2696131,24.2031579 C20.8781441,24.2031579 17.7049097,20.6255263 17.7049097,15.0347368" id="Fill-3" fill="#2E3092"></path>
                <path d="M37.6439924,23.7953947 L37.6439924,6.20460526 L40.8198614,6.20460526 L40.8198614,8.48881579 L40.9897855,8.48881579 C41.5351234,6.9875 42.4571924,5.79407895 44.3698269,5.79407895 C46.2113303,5.79407895 47.2348269,6.8875 47.5088131,8.65855263 L47.6458062,8.65855263 C48.2596407,7.05592105 49.3187028,5.79407895 51.4328752,5.79407895 C54.1292683,5.79407895 55.0855855,7.77302632 55.0855855,11.4203947 L55.0855855,23.7953947 L51.9110338,23.7953947 L51.9110338,11.8980263 C51.9110338,9.47697368 51.3643786,8.65855263 50.0326476,8.65855263 C48.8405441,8.65855263 47.9514062,9.44407895 47.9514062,11.0453947 L47.9514062,23.7953947 L44.7781717,23.7953947 L44.7781717,11.8980263 C44.7781717,9.47697368 44.2657648,8.65855263 42.935351,8.65855263 C41.7063648,8.65855263 40.8198614,9.44407895 40.8198614,11.0453947 L40.8198614,23.7953947 L37.6439924,23.7953947 Z" id="Fill-5" fill="#2E3092"></path>
                <path d="M71.3420566,16.3280263 L71.3420566,13.6688158 C71.3420566,10.3964474 69.5690497,8.72802632 66.8700221,8.72802632 C64.1749462,8.72802632 62.4019393,10.3964474 62.4019393,13.6688158 L62.4019393,16.3280263 C62.4019393,19.6003947 64.1749462,21.2714474 66.8700221,21.2714474 C69.5690497,21.2714474 71.3420566,19.6003947 71.3420566,16.3280263 M58.5081738,14.9977632 C58.5081738,9.37407895 61.68536,5.79381579 66.8700221,5.79381579 C72.0586359,5.79381579 75.2331876,9.37407895 75.2331876,14.9977632 C75.2331876,20.6253947 72.0586359,24.2030263 66.8700221,24.2030263 C61.68536,24.2030263 58.5081738,20.6253947 58.5081738,14.9977632" id="Fill-7" fill="#2E3092"></path>
                <path d="M78.0231048,4.39710526 L78.0231048,-0.000263157895 L81.7443117,-0.000263157895 L81.7443117,6.20368421 L87.8708014,6.20368421 L87.8708014,9.205 L81.7443117,9.205 L81.7443117,20.7944737 L87.8708014,20.7944737 L87.8708014,23.7957895 L82.5280703,23.7957895 C79.4575807,23.7957895 78.0231048,21.955 78.0231048,19.3286842 L78.0231048,9.205" id="Fill-9" fill="#2E3092"></path>
                <path d="M93.6718007,13.2939474 L93.6718007,13.5321053 L102.511808,13.5321053 L102.511808,13.1939474 C102.511808,10.4321053 100.80598,8.62421053 98.2096972,8.62421053 C95.5475524,8.62421053 93.6718007,10.5676316 93.6718007,13.2939474 M89.9176628,15.0347368 C89.9176628,9.37421053 93.1936421,5.79394737 98.2096972,5.79394737 C103.15989,5.79394737 106.300194,9.34131579 106.300194,14.5202632 L106.300194,15.9202632 L93.6718007,15.9202632 L93.6718007,16.5005263 C93.6718007,19.2623684 95.5146214,21.2057895 98.55218,21.2057895 C100.80598,21.2057895 102.441994,20.1478947 103.431242,18.5097368 L105.752221,20.5557895 C104.560118,22.6018421 102.100828,24.2031579 98.4823662,24.2031579 C93.0908972,24.2031579 89.9176628,20.6255263 89.9176628,15.0347368" id="Fill-11" fill="#2E3092"></path>
                <polygon id="Fill-13" fill="#2E3092" points="114.57405 23.7953947 114.57405 0.000657894737 118.398002 0.000657894737 118.398002 20.5914474 128.086312 20.5914474 128.086312 23.7953947"></polygon>
                <g id="Group-17" transform="translate(129.089655, 5.782368)">
                    <mask id="mask-2" fill="white">
                        <use xlink:href="#path-1"></use>
                    </mask>
                    <g id="Clip-16"></g>
                    <path d="M12.1416724,12.7636842 L12.1416724,10.2071053 L8.83144483,10.2071053 C6.09948621,10.2071053 4.80463793,11.0597368 4.80463793,12.6281579 L4.80463793,13.3071053 C4.80463793,14.8755263 6.03362414,15.6952632 8.01212069,15.6952632 C10.4015966,15.6952632 12.1416724,14.5018421 12.1416724,12.7636842 L12.1416724,12.7636842 Z M15.7930655,18.0123684 C13.6788931,18.0123684 12.619831,16.8189474 12.4169759,15.0478947 L12.2444172,15.0478947 C11.5634034,17.1610526 9.71794828,18.4215789 6.9556931,18.4215789 C3.37147931,18.4215789 1.0505,16.4110526 1.0505,13.1018421 C1.0505,9.69394737 3.54008621,7.85315789 8.76294828,7.85315789 L12.1416724,7.85315789 L12.1416724,6.49 C12.1416724,4.13868421 10.8797552,2.90973684 8.35328621,2.90973684 C6.09948621,2.90973684 4.7717069,3.86368421 3.81538966,5.32947368 L1.59583793,3.52289474 C2.58772069,1.615 4.97456207,0.0110526316 8.69576897,0.0110526316 C13.1309207,0.0110526316 15.8628793,2.22947368 15.8628793,6.25184211 L15.8628793,15.0821053 L18.0797966,15.0821053 L18.0797966,18.0123684 L15.7930655,18.0123684 Z" id="Fill-15" fill="#2E3092" mask="url(#mask-2)"></path>
                </g>
                <polygon id="Fill-18" fill="#2E3092" points="149.262548 6.20421053 152.435783 6.20421053 154.142928 21.0002632 154.448528 21.0002632 157.077741 6.20421053 160.694886 6.20421053 163.288534 21.0002632 163.596769 21.0002632 165.336845 6.20421053 168.373086 6.20421053 165.917748 23.795 161.342969 23.795 158.989059 10.1568421 158.680824 10.1568421 156.293983 23.795 151.719203 23.795"></polygon>
                <mask id="mask-4" fill="white">
                    <use xlink:href="#path-3"></use>
                </mask>
                <g id="Clip-21"></g>
                <polygon id="Fill-20" fill="#2E3092" mask="url(#mask-4)" points="173.425366 23.7955263 190.170138 23.7955263 190.170138 20.5889474 173.425366 20.5889474"></polygon>
            </g>
        </g>
    </g>
</svg>