<?xml version="1.0" encoding="UTF-8"?>
<svg width="95px" height="90px" viewBox="0 0 95 90" version="1.1" xmlns="http://www.w3.org/2000/svg" xmlns:xlink="http://www.w3.org/1999/xlink">
    <title>Group 30 Copy</title>
    <g id="Page-1-Copy-2" stroke="none" stroke-width="1" fill="none" fill-rule="evenodd">
        <g id="Group-30-Copy" transform="translate(1.000000, 0.000000)" stroke="#919494" stroke-width="2">
            <polygon id="Stroke-1" points="0 88.5 30 88.5 30 1.5 0 1.5"></polygon>
            <line x1="34.5" y1="1.5" x2="58.5" y2="1.5" id="Stroke-3"></line>
            <line x1="58.5" y1="88.5" x2="34.5" y2="88.5" id="Stroke-4"></line>
            <polygon id="Stroke-5" points="63 88.5 93 88.5 93 1.5 63 1.5"></polygon>
            <path d="M54,72 C54,76.143 50.643,79.5 46.5,79.5 C42.357,79.5 39,76.143 39,72 C39,67.857 42.357,64.5 46.5,64.5 C50.643,64.5 54,67.857 54,72 Z" id="Stroke-6"></path>
            <path d="M85.5,72 C85.5,76.143 82.143,79.5 78,79.5 C73.857,79.5 70.5,76.143 70.5,72 C70.5,67.857 73.857,64.5 78,64.5 C82.143,64.5 85.5,67.857 85.5,72 Z" id="Stroke-7"></path>
            <path d="M22.5,72 C22.5,76.143 19.143,79.5 15,79.5 C10.857,79.5 7.5,76.143 7.5,72 C7.5,67.857 10.857,64.5 15,64.5 C19.143,64.5 22.5,67.857 22.5,72 Z" id="Stroke-8"></path>
            <line x1="0" y1="55.5" x2="25.5" y2="55.5" id="Stroke-9"></line>
            <line x1="34.5" y1="55.5" x2="58.5" y2="55.5" id="Stroke-10"></line>
            <line x1="67.5" y1="55.5" x2="93" y2="55.5" id="Stroke-11"></line>
            <polygon id="Stroke-12" points="6 49.5 24 49.5 24 7.5 6 7.5"></polygon>
            <line x1="13.5" y1="16.5" x2="16.5" y2="16.5" id="Stroke-13"></line>
            <line x1="13.5" y1="40.5" x2="16.5" y2="40.5" id="Stroke-14"></line>
            <line x1="10.5" y1="22.5" x2="19.5" y2="22.5" id="Stroke-15"></line>
            <line x1="10.5" y1="28.5" x2="19.5" y2="28.5" id="Stroke-16"></line>
            <line x1="10.5" y1="34.5" x2="19.5" y2="34.5" id="Stroke-17"></line>
            <polygon id="Stroke-18" points="37.5 49.5 55.5 49.5 55.5 7.5 37.5 7.5"></polygon>
            <line x1="45" y1="16.5" x2="48" y2="16.5" id="Stroke-19"></line>
            <line x1="45" y1="40.5" x2="48" y2="40.5" id="Stroke-20"></line>
            <line x1="42" y1="22.5" x2="51" y2="22.5" id="Stroke-21"></line>
            <line x1="42" y1="28.5" x2="51" y2="28.5" id="Stroke-22"></line>
            <line x1="42" y1="34.5" x2="51" y2="34.5" id="Stroke-23"></line>
            <polygon id="Stroke-24" points="69 49.5 87 49.5 87 7.5 69 7.5"></polygon>
            <line x1="76.5" y1="16.5" x2="79.5" y2="16.5" id="Stroke-25"></line>
            <line x1="76.5" y1="40.5" x2="79.5" y2="40.5" id="Stroke-26"></line>
            <line x1="73.5" y1="22.5" x2="82.5" y2="22.5" id="Stroke-27"></line>
            <line x1="73.5" y1="28.5" x2="82.5" y2="28.5" id="Stroke-28"></line>
            <line x1="73.5" y1="34.5" x2="82.5" y2="34.5" id="Stroke-29"></line>
        </g>
    </g>
</svg>