<?xml version="1.0" encoding="UTF-8"?>
<svg width="35px" height="40px" viewBox="0 0 35 40" version="1.1" xmlns="http://www.w3.org/2000/svg" xmlns:xlink="http://www.w3.org/1999/xlink">
    <title>Group 11</title>
    <g id="Page-1-Copy-2" stroke="none" stroke-width="1" fill="none" fill-rule="evenodd">
        <g id="7-dashboard-copy" transform="translate(-843.000000, -671.000000)">
            <g id="Group-11" transform="translate(843.000000, 671.000000)">
                <path d="M2.5,0 L23.7412,0 L34.99995,11.21505 L34.99995,37.5 C34.99995,38.8812 33.88,40 32.49995,40 L2.5,40 C1.11995,40 0,38.88125 0,37.5 L0,2.5 C0,1.11875 1.1201,0 2.5,0" id="Fill-1" fill="#E2574C"></path>
                <path d="M34.96385,11.24995 L26.2501,11.24995 C24.87005,11.24995 23.7501,10.13 23.7501,8.74995 L23.7501,0.02495 L34.96385,11.24995 Z" id="Fill-3" fill="#B53629"></path>
                <path d="M9.3661,21.0508 L10.78935,21.0508 C11.22615,21.0508 11.55735,20.93175 11.78295,20.6936 C12.00855,20.4555 12.1213,20.15205 12.1213,19.78325 C12.1213,19.4073 12.00935,19.09675 11.78565,18.85145 C11.56185,18.60625 11.2298,18.48355 10.7894,18.48355 L9.36615,18.48355 L9.36615,21.0508 L9.3661,21.0508 Z M9.3661,22.2592 L9.3661,25.09495 L7.79785,25.09495 L7.79785,17.2751 L10.78935,17.2751 C11.68805,17.2751 12.3952,17.50425 12.9108,17.96255 C13.4264,18.4209 13.6842,19.0242 13.6842,19.7725 C13.6842,20.5209 13.4264,21.1224 12.9108,21.5771 C12.3952,22.03185 11.68805,22.2592 10.78935,22.2592 L9.3661,22.2592 Z" id="Fill-5" fill="#FFFFFF"></path>
                <path d="M16.3749,18.4835 L16.3749,23.8919 L17.535,23.8919 C18.0506,23.8919 18.4659,23.69945 18.781,23.3145 C19.096,22.9297 19.2536,22.4364 19.2536,21.83485 L19.2536,20.52975 C19.2536,19.93185 19.096,19.44135 18.781,19.05815 C18.46585,18.67505 18.05055,18.4835 17.535,18.4835 L16.3749,18.4835 L16.3749,18.4835 Z M14.80665,25.0949 L14.80665,17.2751 L17.535,17.2751 C18.491,17.2751 19.27865,17.5804 19.8981,18.1908 C20.5175,18.8013 20.82725,19.5845 20.82725,20.5405 L20.82725,21.83485 C20.82725,22.79445 20.5175,23.57765 19.8981,24.18455 C19.2786,24.79145 18.49095,25.0949 17.535,25.0949 L14.80665,25.0949 Z" id="Fill-7" fill="#FFFFFF"></path>
                <polygon id="Fill-9" fill="#FFFFFF" points="26.6545 21.8456 23.65225 21.8456 23.65225 25.0949 22.084 25.0949 22.084 17.2751 27.2023 17.2751 27.2023 18.4835 23.65225 18.4835 23.65225 20.63715 26.6545 20.63715"></polygon>
            </g>
        </g>
    </g>
</svg>