<?xml version="1.0" encoding="UTF-8"?>
<svg width="119px" height="152px" viewBox="0 0 119 152" version="1.1" xmlns="http://www.w3.org/2000/svg" xmlns:xlink="http://www.w3.org/1999/xlink">
    <title>Group 22</title>
    <g id="Page-1-Copy-2" stroke="none" stroke-width="1" fill="none" fill-rule="evenodd">
        <g id="7-dashboard" transform="translate(-191.000000, -453.000000)" stroke="#2E3092" stroke-width="2">
            <g id="Group-22" transform="translate(192.000000, 454.000000)">
                <polyline id="Stroke-1" points="96.7741935 9.67741935 116.129032 9.67741935 116.129032 150 9.67741935 150 9.67741935 140.322581"></polyline>
                <line x1="12.0967742" y1="38.7096774" x2="94.3548387" y2="38.7096774" id="Stroke-3"></line>
                <line x1="12.0967742" y1="48.3870968" x2="94.3548387" y2="48.3870968" id="Stroke-4"></line>
                <line x1="12.0967742" y1="58.0645161" x2="94.3548387" y2="58.0645161" id="Stroke-5"></line>
                <line x1="12.0967742" y1="67.7419355" x2="45.9677419" y2="67.7419355" id="Stroke-6"></line>
                <line x1="14.516129" y1="128.225806" x2="14.516129" y2="91.9354839" id="Stroke-7"></line>
                <line x1="24.1935484" y1="128.225806" x2="24.1935484" y2="104.032258" id="Stroke-8"></line>
                <line x1="33.8709677" y1="128.225806" x2="33.8709677" y2="82.2580645" id="Stroke-9"></line>
                <line x1="43.5483871" y1="128.225806" x2="43.5483871" y2="96.7741935" id="Stroke-10"></line>
                <line x1="53.2258065" y1="128.225806" x2="53.2258065" y2="87.0967742" id="Stroke-11"></line>
                <line x1="62.9032258" y1="128.225806" x2="62.9032258" y2="101.612903" id="Stroke-12"></line>
                <line x1="72.5806452" y1="128.225806" x2="72.5806452" y2="96.7741935" id="Stroke-13"></line>
                <line x1="82.2580645" y1="128.225806" x2="82.2580645" y2="79.8387097" id="Stroke-14"></line>
                <line x1="91.9354839" y1="128.225806" x2="91.9354839" y2="87.0967742" id="Stroke-15"></line>
                <g id="Group-20">
                    <polyline id="Stroke-16" points="87.0967742 2.41935484 87.0967742 19.3548387 104.032258 19.3548387"></polyline>
                    <polygon id="Stroke-18" points="87.0967742 0 106.451613 19.3548387 106.451613 140.322581 0 140.322581 0 0"></polygon>
                </g>
                <polygon id="Stroke-21" stroke-linejoin="round" points="14.516129 29.0322581 72.5806452 29.0322581 72.5806452 14.516129 14.516129 14.516129"></polygon>
            </g>
        </g>
    </g>
</svg>