<?xml version="1.0" encoding="UTF-8"?>
<svg width="38px" height="38px" viewBox="0 0 38 38" version="1.1" xmlns="http://www.w3.org/2000/svg" xmlns:xlink="http://www.w3.org/1999/xlink">
    <title>Group</title>
    <g id="Page-1-Copy-2" stroke="none" stroke-width="1" fill="none" fill-rule="evenodd">
        <g id="7-dashboard" transform="translate(-1336.000000, -27.000000)" stroke="#2E3092" stroke-width="2">
            <g id="Group" transform="translate(1337.000000, 28.000000)">
                <circle id="Oval" cx="18" cy="18" r="18"></circle>
                <g id="Group-5" transform="translate(8.000000, 7.000000)">
                    <path d="M15,5.5 C15,9 13.037,12 10,12 C6.963,12 5,9 5,5.5 C5,2 6,0 10,0 C14,0 15,2 15,5.5 Z" id="Stroke-1"></path>
                    <path d="M13,11 L20,15 L20,17 C20,18.657 19,20 18,20 L2,20 C1,20 0,18.657 0,17 L0,15 L7,11" id="Stroke-3"></path>
                </g>
            </g>
        </g>
    </g>
</svg>