<?xml version="1.0" encoding="UTF-8"?>
<svg width="123px" height="125px" viewBox="0 0 123 125" version="1.1" xmlns="http://www.w3.org/2000/svg" xmlns:xlink="http://www.w3.org/1999/xlink">
    <title>Group 56 Copy</title>
    <g id="Page-1-Copy-2" stroke="none" stroke-width="1" fill="none" fill-rule="evenodd">
        <g id="Group-56-Copy" transform="translate(0.000000, 1.000000)" stroke="#2E3092" stroke-width="2">
            <polyline id="Stroke-1" points="38.5761511 102.113341 38.5761511 9.07674144 83.9598583 9.07674144 83.9598583 102.113341"></polyline>
            <line x1="0" y1="99.8441558" x2="13.6151122" y2="99.8441558" id="Stroke-2"></line>
            <line x1="18.1534829" y1="99.8441558" x2="31.768595" y2="99.8441558" id="Stroke-3"></line>
            <line x1="0" y1="90.7674144" x2="13.6151122" y2="90.7674144" id="Stroke-4"></line>
            <line x1="18.1534829" y1="90.7674144" x2="31.768595" y2="90.7674144" id="Stroke-5"></line>
            <line x1="0" y1="81.690673" x2="13.6151122" y2="81.690673" id="Stroke-6"></line>
            <line x1="18.1534829" y1="81.690673" x2="31.768595" y2="81.690673" id="Stroke-7"></line>
            <line x1="0" y1="72.6139315" x2="31.768595" y2="72.6139315" id="Stroke-8"></line>
            <line x1="0" y1="63.5371901" x2="13.6151122" y2="63.5371901" id="Stroke-9"></line>
            <line x1="18.1534829" y1="63.5371901" x2="31.768595" y2="63.5371901" id="Stroke-10"></line>
            <line x1="90.7674144" y1="99.8441558" x2="104.382527" y2="99.8441558" id="Stroke-11"></line>
            <line x1="108.920897" y1="99.8441558" x2="122.536009" y2="99.8441558" id="Stroke-12"></line>
            <line x1="90.7674144" y1="90.7674144" x2="104.382527" y2="90.7674144" id="Stroke-13"></line>
            <line x1="108.920897" y1="90.7674144" x2="122.536009" y2="90.7674144" id="Stroke-14"></line>
            <line x1="90.7674144" y1="81.690673" x2="122.536009" y2="81.690673" id="Stroke-15"></line>
            <line x1="90.7674144" y1="72.6139315" x2="104.382527" y2="72.6139315" id="Stroke-16"></line>
            <line x1="108.920897" y1="72.6139315" x2="122.536009" y2="72.6139315" id="Stroke-17"></line>
            <line x1="90.7674144" y1="63.5371901" x2="104.382527" y2="63.5371901" id="Stroke-18"></line>
            <line x1="108.920897" y1="63.5371901" x2="122.536009" y2="63.5371901" id="Stroke-19"></line>
            <line x1="90.7674144" y1="54.4604486" x2="104.382527" y2="54.4604486" id="Stroke-20"></line>
            <line x1="108.920897" y1="54.4604486" x2="122.536009" y2="54.4604486" id="Stroke-21"></line>
            <line x1="90.7674144" y1="45.3837072" x2="104.382527" y2="45.3837072" id="Stroke-22"></line>
            <line x1="108.920897" y1="45.3837072" x2="122.536009" y2="45.3837072" id="Stroke-23"></line>
            <line x1="45.3837072" y1="99.8441558" x2="77.1523022" y2="99.8441558" id="Stroke-24"></line>
            <line x1="45.3837072" y1="90.7674144" x2="58.9988194" y2="90.7674144" id="Stroke-25"></line>
            <line x1="63.5371901" y1="90.7674144" x2="77.1523022" y2="90.7674144" id="Stroke-26"></line>
            <line x1="45.3837072" y1="81.690673" x2="58.9988194" y2="81.690673" id="Stroke-27"></line>
            <line x1="63.5371901" y1="81.690673" x2="77.1523022" y2="81.690673" id="Stroke-28"></line>
            <line x1="45.3837072" y1="72.6139315" x2="58.9988194" y2="72.6139315" id="Stroke-29"></line>
            <line x1="63.5371901" y1="72.6139315" x2="77.1523022" y2="72.6139315" id="Stroke-30"></line>
            <line x1="45.3837072" y1="63.5371901" x2="58.9988194" y2="63.5371901" id="Stroke-31"></line>
            <line x1="63.5371901" y1="63.5371901" x2="77.1523022" y2="63.5371901" id="Stroke-32"></line>
            <line x1="45.3837072" y1="54.4604486" x2="77.1523022" y2="54.4604486" id="Stroke-33"></line>
            <line x1="45.3837072" y1="45.3837072" x2="58.9988194" y2="45.3837072" id="Stroke-34"></line>
            <line x1="63.5371901" y1="45.3837072" x2="77.1523022" y2="45.3837072" id="Stroke-35"></line>
            <line x1="45.3837072" y1="36.3069658" x2="58.9988194" y2="36.3069658" id="Stroke-36"></line>
            <line x1="63.5371901" y1="36.3069658" x2="77.1523022" y2="36.3069658" id="Stroke-37"></line>
            <line x1="45.3837072" y1="27.2302243" x2="58.9988194" y2="27.2302243" id="Stroke-38"></line>
            <line x1="63.5371901" y1="27.2302243" x2="77.1523022" y2="27.2302243" id="Stroke-39"></line>
            <line x1="45.3837072" y1="18.1534829" x2="58.9988194" y2="18.1534829" id="Stroke-40"></line>
            <line x1="63.5371901" y1="18.1534829" x2="77.1523022" y2="18.1534829" id="Stroke-41"></line>
            <polygon id="Stroke-42" points="2.26918536 54.4604486 29.4994097 54.4604486 29.4994097 45.3837072 2.26918536 45.3837072"></polygon>
            <polygon id="Stroke-43" points="93.0365998 36.3069658 120.266824 36.3069658 120.266824 27.2302243 93.0365998 27.2302243"></polygon>
            <polygon id="Stroke-44" points="47.6528926 9.07674144 74.8831169 9.07674144 74.8831169 0 47.6528926 0"></polygon>
            <line x1="2.26918536" y1="122.536009" x2="120.266824" y2="122.536009" id="Stroke-55"></line>
        </g>
    </g>
</svg>