<?xml version="1.0" encoding="UTF-8"?>
<svg width="149px" height="177px" viewBox="0 0 149 177" version="1.1" xmlns="http://www.w3.org/2000/svg" xmlns:xlink="http://www.w3.org/1999/xlink">
    <title>Group 7</title>
    <g id="Page-1-Copy-2" stroke="none" stroke-width="1" fill="none" fill-rule="evenodd">
        <g id="5-checkout" transform="translate(-280.000000, -582.000000)" stroke="#2E3092" stroke-width="2">
            <g id="Group-6" transform="translate(157.000000, 506.000000)">
                <g id="Group-7" transform="translate(124.000000, 77.000000)">
                    <g id="Group-5-Copy" transform="translate(0.000000, 55.000000)">
                        <path d="M90,33 C90,54 78.222,72 60,72 C41.778,72 30,54 30,33 C30,12 36,0 60,0 C84,0 90,12 90,33 Z" id="Stroke-1"></path>
                        <path d="M78,66 L120,90 L120,102 C120,111.942 114,120 108,120 L12,120 C6,120 0,111.942 0,102 L0,90 L42,66" id="Stroke-3"></path>
                    </g>
                    <g id="Group-3" transform="translate(84.000000, 0.000000)" stroke-linecap="square">
                        <line x1="31.5" y1="0.5" x2="31.5" y2="62.5" id="Line"></line>
                        <line x1="31.5" y1="0.5" x2="31.5" y2="62.5" id="Line" transform="translate(31.500000, 31.500000) rotate(-90.000000) translate(-31.500000, -31.500000) "></line>
                    </g>
                </g>
            </g>
        </g>
    </g>
</svg>