<?xml version="1.0" encoding="UTF-8"?>
<svg width="112px" height="144px" viewBox="0 0 112 144" version="1.1" xmlns="http://www.w3.org/2000/svg" xmlns:xlink="http://www.w3.org/1999/xlink">
    <title>Group 19</title>
    <g id="Page-1-Copy-2" stroke="none" stroke-width="1" fill="none" fill-rule="evenodd" opacity="0.227980841">
        <g id="4-registration" transform="translate(-247.000000, -641.000000)" stroke="#222829" stroke-width="3">
            <g id="Group-3" transform="translate(162.000000, 506.000000)">
                <g id="Group" transform="translate(0.000000, 67.000000)">
                    <g id="Group-19" transform="translate(87.000000, 70.000000)">
                        <polyline id="Stroke-1" points="99.3548387 79.0322581 99.3548387 130.967742 47.4193548 130.967742"></polyline>
                        <g id="Group-6">
                            <polyline id="Stroke-2" points="81.2903226 0 81.2903226 18.0645161 99.3548387 18.0645161"></polyline>
                            <polyline id="Stroke-4" points="13.5483871 130.967742 0 130.967742 0 0 81.2903226 0 99.3548387 18.0645161 99.3548387 42.9032258"></polyline>
                        </g>
                        <line x1="36.1290323" y1="133.225806" x2="24.8387097" y2="121.935484" id="Stroke-7"></line>
                        <polyline id="Stroke-8" stroke-linecap="round" stroke-linejoin="round" points="58.7096774 74.516129 81.2903226 51.9354839 99.3548387 70"></polyline>
                        <polygon id="Stroke-9" stroke-linecap="round" stroke-linejoin="round" points="97.0967742 49.6774194 24.8387097 121.935484 18.0645161 140 36.1290323 133.225806 108.387097 60.9677419"></polygon>
                        <line x1="47.4193548" y1="99.3548387" x2="58.7096774" y2="110.645161" id="Stroke-11" stroke-linecap="round"></line>
                        <line x1="6.77419355" y1="18.0645161" x2="65.483871" y2="18.0645161" id="Stroke-12"></line>
                        <line x1="6.77419355" y1="31.6129032" x2="79.0322581" y2="31.6129032" id="Stroke-13"></line>
                        <line x1="6.77419355" y1="45.1612903" x2="54.1935484" y2="45.1612903" id="Stroke-14"></line>
                        <line x1="6.77419355" y1="58.7096774" x2="54.1935484" y2="58.7096774" id="Stroke-15"></line>
                        <line x1="6.77419355" y1="72.2580645" x2="33.8709677" y2="72.2580645" id="Stroke-16"></line>
                        <line x1="6.77419355" y1="85.8064516" x2="33.8709677" y2="85.8064516" id="Stroke-17"></line>
                        <line x1="6.77419355" y1="99.3548387" x2="33.8709677" y2="99.3548387" id="Stroke-18"></line>
                    </g>
                </g>
            </g>
        </g>
    </g>
</svg>