<?xml version="1.0" encoding="UTF-8"?>
<svg width="157px" height="202px" viewBox="0 0 157 202" version="1.1" xmlns="http://www.w3.org/2000/svg" xmlns:xlink="http://www.w3.org/1999/xlink">
    <title>Group 22</title>
    <g id="Page-1-Copy-2" stroke="none" stroke-width="1" fill="none" fill-rule="evenodd">
        <g id="3-individuals2" transform="translate(-189.000000, -648.000000)" stroke="#2E3092" stroke-width="2">
            <g id="Group-22" transform="translate(190.000000, 649.000000)">
                <polyline id="Stroke-1" points="129.032258 12.9032258 154.83871 12.9032258 154.83871 200 12.9032258 200 12.9032258 187.096774"></polyline>
                <line x1="16.1290323" y1="51.6129032" x2="125.806452" y2="51.6129032" id="Stroke-3"></line>
                <line x1="16.1290323" y1="64.516129" x2="125.806452" y2="64.516129" id="Stroke-4"></line>
                <line x1="16.1290323" y1="77.4193548" x2="125.806452" y2="77.4193548" id="Stroke-5"></line>
                <line x1="16.1290323" y1="90.3225806" x2="61.2903226" y2="90.3225806" id="Stroke-6"></line>
                <line x1="19.3548387" y1="170.967742" x2="19.3548387" y2="122.580645" id="Stroke-7"></line>
                <line x1="32.2580645" y1="170.967742" x2="32.2580645" y2="138.709677" id="Stroke-8"></line>
                <line x1="45.1612903" y1="170.967742" x2="45.1612903" y2="109.677419" id="Stroke-9"></line>
                <line x1="58.0645161" y1="170.967742" x2="58.0645161" y2="129.032258" id="Stroke-10"></line>
                <line x1="70.9677419" y1="170.967742" x2="70.9677419" y2="116.129032" id="Stroke-11"></line>
                <line x1="83.8709677" y1="170.967742" x2="83.8709677" y2="135.483871" id="Stroke-12"></line>
                <line x1="96.7741935" y1="170.967742" x2="96.7741935" y2="129.032258" id="Stroke-13"></line>
                <line x1="109.677419" y1="170.967742" x2="109.677419" y2="106.451613" id="Stroke-14"></line>
                <line x1="122.580645" y1="170.967742" x2="122.580645" y2="116.129032" id="Stroke-15"></line>
                <g id="Group-20">
                    <polyline id="Stroke-16" points="116.129032 3.22580645 116.129032 25.8064516 138.709677 25.8064516"></polyline>
                    <polygon id="Stroke-18" points="116.129032 0 141.935484 25.8064516 141.935484 187.096774 0 187.096774 0 0"></polygon>
                </g>
                <polygon id="Stroke-21" stroke-linejoin="round" points="19.3548387 38.7096774 96.7741935 38.7096774 96.7741935 19.3548387 19.3548387 19.3548387"></polygon>
            </g>
        </g>
    </g>
</svg>