<?xml version="1.0" encoding="UTF-8"?>
<svg width="81px" height="104px" viewBox="0 0 81 104" version="1.1" xmlns="http://www.w3.org/2000/svg" xmlns:xlink="http://www.w3.org/1999/xlink">
    <title>Group 22 Copy 2</title>
    <g id="Page-1-Copy-2" stroke="none" stroke-width="1" fill="none" fill-rule="evenodd">
        <g id="Group-22-Copy-2" transform="translate(1.000000, 1.000000)" stroke="#2E3092" stroke-width="2">
            <polyline id="Stroke-1" points="65.8064516 6.58064516 78.9677419 6.58064516 78.9677419 102 6.58064516 102 6.58064516 95.4193548"></polyline>
            <line x1="8.22580645" y1="26.3225806" x2="64.1612903" y2="26.3225806" id="Stroke-3"></line>
            <line x1="8.22580645" y1="32.9032258" x2="64.1612903" y2="32.9032258" id="Stroke-4"></line>
            <line x1="8.22580645" y1="39.483871" x2="64.1612903" y2="39.483871" id="Stroke-5"></line>
            <line x1="8.22580645" y1="46.0645161" x2="31.2580645" y2="46.0645161" id="Stroke-6"></line>
            <line x1="9.87096774" y1="87.1935484" x2="9.87096774" y2="62.516129" id="Stroke-7"></line>
            <line x1="16.4516129" y1="87.1935484" x2="16.4516129" y2="70.7419355" id="Stroke-8"></line>
            <line x1="23.0322581" y1="87.1935484" x2="23.0322581" y2="55.9354839" id="Stroke-9"></line>
            <line x1="29.6129032" y1="87.1935484" x2="29.6129032" y2="65.8064516" id="Stroke-10"></line>
            <line x1="36.1935484" y1="87.1935484" x2="36.1935484" y2="59.2258065" id="Stroke-11"></line>
            <line x1="42.7741935" y1="87.1935484" x2="42.7741935" y2="69.0967742" id="Stroke-12"></line>
            <line x1="49.3548387" y1="87.1935484" x2="49.3548387" y2="65.8064516" id="Stroke-13"></line>
            <line x1="55.9354839" y1="87.1935484" x2="55.9354839" y2="54.2903226" id="Stroke-14"></line>
            <line x1="62.516129" y1="87.1935484" x2="62.516129" y2="59.2258065" id="Stroke-15"></line>
            <g id="Group-20">
                <polyline id="Stroke-16" points="59.2258065 1.64516129 59.2258065 13.1612903 70.7419355 13.1612903"></polyline>
                <polygon id="Stroke-18" points="59.2258065 0 72.3870968 13.1612903 72.3870968 95.4193548 0 95.4193548 0 0"></polygon>
            </g>
            <polygon id="Stroke-21" stroke-linejoin="round" points="9.87096774 19.7419355 49.3548387 19.7419355 49.3548387 9.87096774 9.87096774 9.87096774"></polygon>
        </g>
    </g>
</svg>