<?xml version="1.0" encoding="UTF-8"?>
<svg width="86px" height="92px" viewBox="0 0 86 92" version="1.1" xmlns="http://www.w3.org/2000/svg" xmlns:xlink="http://www.w3.org/1999/xlink">
    <title>Group 20</title>
    <g id="Page-1-Copy-2" stroke="none" stroke-width="1" fill="none" fill-rule="evenodd" opacity="0.501697359" stroke-linejoin="round">
        <g id="2-individuals" transform="translate(-682.000000, -538.000000)" stroke="#222829" stroke-width="2">
            <g id="Group-20" transform="translate(683.000000, 539.000000)">
                <polygon id="Stroke-1" points="79.6551724 39.1935484 4.34482759 39.1935484 4.34482759 33.3870968 37.6551724 0 59.3793103 21.7741935 68.0689655 21.7741935 79.6551724 33.3870968"></polygon>
                <line x1="79.6551724" y1="33.3870968" x2="4.34482759" y2="33.3870968" id="Stroke-3"></line>
                <line x1="10.137931" y1="43.5483871" x2="10.137931" y2="74.0322581" id="Stroke-4"></line>
                <line x1="15.9310345" y1="43.5483871" x2="15.9310345" y2="74.0322581" id="Stroke-5"></line>
                <line x1="24.6206897" y1="43.5483871" x2="24.6206897" y2="74.0322581" id="Stroke-6"></line>
                <line x1="30.4137931" y1="43.5483871" x2="30.4137931" y2="74.0322581" id="Stroke-7"></line>
                <line x1="39.1034483" y1="43.5483871" x2="39.1034483" y2="74.0322581" id="Stroke-8"></line>
                <line x1="44.8965517" y1="43.5483871" x2="44.8965517" y2="74.0322581" id="Stroke-9"></line>
                <line x1="53.5862069" y1="43.5483871" x2="53.5862069" y2="74.0322581" id="Stroke-10"></line>
                <line x1="59.3793103" y1="43.5483871" x2="59.3793103" y2="74.0322581" id="Stroke-11"></line>
                <line x1="68.0689655" y1="43.5483871" x2="68.0689655" y2="74.0322581" id="Stroke-12"></line>
                <line x1="73.862069" y1="43.5483871" x2="73.862069" y2="74.0322581" id="Stroke-13"></line>
                <line x1="18.8275862" y1="27.5806452" x2="65.1724138" y2="27.5806452" id="Stroke-14"></line>
                <polygon id="Stroke-15" points="84 90 0 90 0 84.1935484 5.79310345 84.1935484 5.79310345 78.3870968 78.2068966 78.3870968 78.2068966 84.1935484 84 84.1935484"></polygon>
                <line x1="10.137931" y1="84.1935484" x2="73.862069" y2="84.1935484" id="Stroke-17"></line>
                <path d="M42,17.4193548 C42,19.8246774 40.0549655,21.7741935 37.6551724,21.7741935 C35.2553793,21.7741935 33.3103448,19.8246774 33.3103448,17.4193548 C33.3103448,15.0140323 35.2553793,13.0645161 37.6551724,13.0645161 C40.0549655,13.0645161 42,15.0140323 42,17.4193548 Z" id="Stroke-18"></path>
            </g>
        </g>
    </g>
</svg>